<?xml version="1.0" standalone="no"?>
<!DOCTYPE svg PUBLIC "-//W3C//DTD SVG 20010904//EN"
 "http://www.w3.org/TR/2001/REC-SVG-20010904/DTD/svg10.dtd">
<svg version="1.0" xmlns="http://www.w3.org/2000/svg"
 width="1155.000000pt" height="1280.000000pt" viewBox="0 0 1155.000000 1280.000000"
 preserveAspectRatio="xMidYMid meet">
<g transform="translate(0.000000,1280.000000) scale(0.100000,-0.100000)"
fill="#000000" stroke="none">
<path d="M5327 12773 c-4 -3 -7 -120 -7 -259 l0 -252 -221 -128 c-185 -106
-219 -129 -206 -139 9 -6 109 -65 222 -130 l205 -119 0 -252 c0 -139 4 -255 8
-258 5 -3 67 29 140 71 76 44 138 73 147 69 13 -5 15 -51 15 -355 0 -247 -3
-352 -11 -357 -7 -4 -182 164 -428 410 -229 229 -423 416 -431 416 -17 0 -200
-179 -200 -195 0 -5 241 -251 535 -545 l535 -535 0 -385 c0 -229 -4 -391 -10
-400 -8 -12 -97 72 -435 410 l-425 425 -100 -100 c-55 -55 -100 -104 -100
-110 0 -5 241 -251 535 -545 l535 -535 0 -517 c0 -284 -3 -523 -6 -532 -5 -14
-39 -16 -274 -16 -242 0 -268 2 -282 18 -8 9 -79 128 -156 263 l-142 246 0
107 0 107 48 29 c26 17 123 74 216 127 93 54 171 103 173 108 1 6 -94 65 -211
133 -118 67 -217 130 -220 138 -3 9 -6 126 -6 260 0 134 -2 244 -4 244 -3 0
-102 -56 -221 -125 -119 -69 -219 -125 -223 -125 -3 0 -103 56 -222 125 -120
69 -220 125 -224 125 -3 0 -6 -115 -6 -255 l0 -255 -27 -17 c-15 -10 -112 -67
-217 -128 -104 -60 -189 -114 -188 -120 1 -5 91 -62 200 -125 110 -63 207
-121 216 -129 14 -12 16 -44 16 -267 0 -140 2 -254 5 -254 3 0 102 56 221 125
119 69 221 125 227 125 7 -1 53 -25 102 -53 l90 -53 147 -254 c81 -140 148
-261 148 -269 0 -17 -247 -446 -265 -461 -10 -8 -126 54 -467 251 -249 143
-461 269 -471 278 -12 12 -79 246 -206 720 -104 386 -191 704 -194 707 -3 3
-64 -11 -136 -30 -72 -20 -134 -36 -136 -36 -12 0 5 -71 140 -575 89 -331 141
-543 136 -548 -13 -13 -681 371 -692 398 -5 11 -92 330 -194 709 -101 379
-188 693 -192 697 -9 9 -261 -54 -274 -68 -4 -4 57 -249 137 -543 79 -294 144
-545 144 -558 0 -15 -5 -22 -13 -20 -8 2 -143 77 -301 168 -179 103 -285 170
-284 179 2 7 63 48 135 90 73 42 131 80 130 84 -2 8 -396 241 -422 250 -6 2
-12 105 -15 265 l-5 262 -215 -125 c-118 -68 -222 -125 -230 -125 -8 0 -112
56 -230 125 l-215 124 -3 -253 c-2 -219 -5 -256 -18 -267 -9 -8 -107 -66 -217
-130 -111 -64 -202 -120 -204 -125 -2 -5 95 -65 215 -134 l217 -126 3 -257 c1
-141 5 -257 9 -257 3 0 104 57 225 126 l218 126 218 -126 c121 -69 222 -126
225 -126 4 0 7 72 7 159 0 90 4 162 9 166 14 8 621 -345 621 -361 0 -7 -8 -15
-17 -18 -10 -3 -265 -71 -568 -152 -302 -81 -553 -150 -557 -153 -10 -8 62
-281 74 -281 5 0 329 86 721 191 392 105 721 191 733 191 20 0 654 -359 683
-387 11 -11 10 -15 -5 -23 -11 -5 -270 -76 -576 -158 -471 -126 -558 -152
-558 -166 0 -34 64 -260 74 -264 6 -2 337 83 735 190 l725 194 42 -21 c23 -12
229 -130 458 -262 281 -162 416 -245 416 -257 0 -9 -58 -117 -129 -240 l-130
-223 -304 -3 -305 -2 -93 54 -94 54 -3 256 c-1 157 -6 256 -12 256 -5 0 -103
-54 -217 -120 -115 -66 -215 -120 -224 -120 -9 0 -110 54 -224 120 -114 66
-211 120 -216 120 -5 0 -9 -108 -9 -247 0 -137 -4 -253 -8 -259 -4 -6 -103
-66 -219 -134 -117 -67 -213 -125 -213 -129 0 -5 96 -63 213 -131 116 -67 215
-128 219 -134 4 -6 8 -122 8 -258 0 -137 3 -248 8 -248 4 0 101 54 216 120
114 66 216 120 225 120 9 0 110 -54 225 -120 114 -66 212 -120 217 -120 5 0 9
110 9 254 l0 255 94 55 95 56 305 0 304 0 118 -202 c64 -112 124 -215 133
-231 11 -19 13 -32 6 -43 -10 -15 -894 -532 -925 -541 -8 -2 -334 82 -724 186
-391 105 -711 189 -713 188 -6 -7 -76 -278 -72 -282 3 -2 232 -65 509 -139
623 -167 595 -159 595 -176 0 -12 -657 -400 -676 -400 -4 0 -325 85 -715 190
-390 104 -711 186 -715 182 -10 -11 -74 -270 -68 -276 2 -3 249 -71 548 -151
300 -80 548 -148 553 -151 19 -12 3 -25 -104 -87 -62 -36 -196 -113 -297 -171
-101 -58 -187 -103 -192 -100 -5 3 -9 77 -9 166 0 147 -1 160 -17 154 -9 -4
-111 -61 -225 -127 l-208 -120 -218 125 c-120 69 -222 126 -225 126 -4 0 -8
-116 -9 -257 l-3 -257 -217 -125 c-120 -69 -218 -129 -218 -132 0 -4 96 -62
213 -130 116 -67 214 -124 217 -126 3 -3 7 -121 10 -263 l5 -259 215 124 c118
69 222 125 230 125 8 0 112 -56 230 -125 l215 -124 5 259 c3 142 7 260 10 263
3 2 101 59 218 127 116 67 212 125 212 129 0 4 -60 41 -132 83 -73 41 -134 82
-136 89 -1 9 107 77 297 186 274 158 331 187 331 166 0 -5 -68 -260 -150 -568
-83 -307 -150 -565 -150 -571 0 -14 20 -21 168 -60 60 -16 106 -23 111 -18 4
5 94 333 200 729 106 396 198 725 204 731 21 20 659 384 673 384 8 0 14 -6 14
-14 0 -8 -68 -267 -151 -576 -83 -309 -148 -564 -145 -567 7 -7 246 -73 266
-73 12 0 60 168 209 724 107 399 197 729 200 735 3 5 210 127 459 271 358 206
456 259 467 250 18 -15 265 -444 265 -460 0 -7 -66 -127 -146 -267 l-146 -254
-93 -54 c-51 -30 -97 -55 -103 -55 -5 0 -103 55 -218 121 -115 67 -215 124
-221 126 -10 4 -13 -50 -13 -250 0 -222 -2 -256 -16 -268 -9 -7 -106 -65 -216
-129 -110 -64 -201 -120 -201 -125 0 -6 90 -62 201 -126 111 -64 208 -122 217
-129 13 -11 15 -50 15 -266 0 -140 3 -254 6 -254 3 0 95 52 205 115 110 64
210 121 223 126 20 9 50 -5 240 -115 120 -69 220 -126 222 -126 2 0 4 113 4
250 0 228 2 252 18 268 10 9 109 69 220 132 111 63 202 120 201 125 0 6 -79
55 -176 110 -96 55 -195 112 -219 127 l-44 28 0 106 0 107 141 246 c78 135
148 254 157 264 14 15 40 17 282 17 235 0 269 -2 274 -16 3 -9 6 -249 6 -535
0 -430 -2 -525 -14 -547 -8 -16 -245 -256 -527 -535 l-513 -508 104 -104 c57
-57 105 -103 106 -102 2 1 185 184 408 406 231 231 410 401 418 399 10 -4 14
-81 16 -393 l2 -389 -527 -528 -527 -528 99 -100 c55 -55 104 -100 110 -100 5
0 191 181 411 401 291 291 406 400 418 396 14 -6 16 -44 16 -342 0 -285 -2
-336 -15 -341 -8 -3 -74 28 -146 70 -73 41 -136 73 -141 70 -4 -3 -8 -119 -8
-258 l0 -252 -202 -117 c-112 -64 -211 -122 -222 -130 -16 -12 2 -25 200 -139
l219 -126 5 -259 c3 -173 8 -257 16 -256 5 1 104 56 220 122 115 67 214 121
219 121 6 0 105 -54 220 -121 115 -66 214 -121 220 -122 6 -1 12 90 15 256 l5
259 219 126 c198 114 216 127 200 139 -11 8 -110 66 -221 130 l-203 117 0 252
c0 139 -4 255 -8 258 -5 3 -68 -29 -141 -70 -72 -42 -138 -73 -146 -70 -13 5
-15 58 -15 355 0 247 3 352 11 357 7 4 182 -164 428 -410 229 -229 423 -416
431 -416 17 0 200 179 200 195 0 6 -240 250 -532 542 l-533 533 -3 392 c-2
265 1 395 8 402 7 7 135 -114 428 -407 229 -229 424 -417 432 -417 17 0 200
179 200 195 0 5 -241 251 -535 545 l-535 535 0 517 c0 284 3 523 6 532 5 14
39 16 274 16 242 0 268 -2 282 -17 8 -10 79 -129 156 -264 l142 -245 0 -107 0
-107 -44 -28 c-24 -15 -123 -72 -219 -127 -97 -55 -176 -104 -176 -110 -1 -5
90 -62 201 -125 111 -63 210 -123 220 -132 16 -16 18 -40 18 -268 0 -137 2
-250 4 -250 2 0 102 57 222 126 190 110 220 124 240 115 13 -5 113 -62 223
-126 110 -63 202 -115 205 -115 3 0 6 114 6 254 0 216 2 255 15 266 9 7 106
65 217 129 111 64 201 120 201 126 0 5 -91 61 -201 125 -110 64 -207 122 -216
129 -14 12 -16 46 -16 268 0 200 -3 254 -12 250 -7 -2 -107 -59 -222 -126
-115 -66 -213 -121 -218 -121 -6 0 -52 25 -103 55 l-93 54 -146 254 c-80 140
-146 260 -146 267 0 16 247 445 265 460 11 9 112 -46 479 -257 256 -147 468
-275 472 -283 3 -8 91 -329 194 -713 104 -384 190 -700 193 -703 2 -2 66 12
141 32 99 27 136 41 136 52 0 9 -63 250 -139 536 -170 635 -156 576 -140 576
8 0 165 -87 349 -193 324 -187 335 -195 348 -233 7 -21 94 -340 192 -708 99
-368 183 -673 187 -677 4 -4 69 9 143 29 98 27 135 42 134 52 -1 8 -65 252
-143 542 -77 290 -141 537 -141 548 0 13 5 20 14 18 8 -2 143 -77 300 -168
182 -105 286 -170 284 -179 -2 -7 -63 -48 -135 -89 -73 -42 -133 -79 -133 -83
0 -4 96 -62 213 -129 116 -68 214 -125 217 -127 3 -3 7 -121 10 -263 l5 -259
215 124 c118 69 222 125 230 125 8 0 112 -56 230 -125 l215 -124 5 259 c3 142
7 260 10 263 3 2 101 59 218 126 116 68 212 126 212 130 0 3 -98 63 -217 132
l-218 125 -3 257 c-1 141 -5 257 -9 257 -3 0 -105 -57 -225 -126 l-218 -125
-208 120 c-114 66 -216 123 -225 127 -16 6 -17 -7 -17 -154 0 -89 -4 -163 -9
-166 -5 -3 -107 51 -227 120 -121 70 -258 149 -306 176 -49 28 -88 56 -88 63
0 17 -24 10 600 176 294 78 538 145 542 148 11 9 -63 281 -76 281 -6 0 -330
-86 -720 -190 -391 -105 -720 -190 -733 -190 -22 0 -652 356 -682 385 -12 12
-11 15 10 25 13 5 236 67 494 136 259 69 505 135 549 147 43 11 80 27 83 34 7
18 -58 264 -71 269 -6 2 -337 -83 -736 -190 l-725 -194 -35 18 c-114 59 -867
501 -875 514 -7 11 -5 24 6 43 9 16 69 119 133 231 l118 202 304 0 305 0 95
-56 94 -55 0 -255 c0 -144 4 -254 9 -254 5 0 103 54 217 120 115 66 216 120
225 120 9 0 111 -54 225 -120 115 -66 212 -120 216 -120 5 0 8 111 8 248 0
136 4 252 8 258 4 6 103 67 220 134 116 67 212 126 212 130 0 5 -96 63 -212
130 -117 68 -216 128 -220 134 -4 6 -8 122 -8 259 0 139 -4 247 -9 247 -5 0
-102 -54 -216 -120 -114 -66 -215 -120 -224 -120 -9 0 -109 54 -224 120 -114
66 -212 120 -217 120 -6 0 -11 -99 -12 -256 l-3 -256 -94 -54 -93 -54 -305 2
-304 3 -130 223 c-71 123 -129 231 -129 240 0 12 151 104 467 286 l467 269 85
-22 c48 -12 367 -98 711 -190 508 -137 627 -166 636 -155 12 16 79 263 72 269
-2 3 -249 70 -549 151 -299 80 -548 150 -554 155 -6 6 -4 14 5 23 15 14 609
357 652 376 20 10 135 -19 733 -179 390 -105 711 -188 713 -186 7 7 72 248 72
266 0 19 43 6 -585 174 -280 75 -514 141 -519 146 -6 6 -6 12 0 18 25 24 586
341 595 336 5 -4 9 -76 9 -166 0 -87 3 -159 7 -159 3 0 104 57 225 126 l218
126 218 -126 c121 -69 222 -126 225 -126 4 0 8 116 9 257 l3 257 217 126 c120
69 217 129 215 134 -2 5 -93 61 -204 125 -110 64 -208 122 -217 130 -13 11
-16 48 -18 267 l-3 253 -215 -124 c-118 -69 -222 -125 -230 -125 -8 0 -112 56
-230 125 l-215 124 -5 -261 c-3 -161 -9 -263 -15 -265 -25 -9 -425 -245 -425
-251 0 -4 60 -41 133 -83 72 -42 133 -83 135 -90 1 -9 -110 -79 -298 -186
-275 -159 -330 -186 -330 -165 0 4 68 260 151 570 83 310 149 568 146 575 -6
16 -266 83 -276 71 -4 -5 -87 -306 -184 -669 -97 -363 -185 -689 -194 -724
l-18 -65 -334 -193 c-184 -106 -340 -193 -348 -193 -7 0 -13 6 -13 14 0 8 68
267 151 576 83 309 147 566 142 570 -11 10 -271 76 -276 70 -2 -3 -91 -330
-197 -727 -107 -398 -196 -727 -199 -732 -3 -5 -210 -126 -459 -270 -341 -197
-457 -259 -467 -251 -18 15 -265 444 -265 461 0 8 67 128 148 268 l147 255 90
53 c50 29 95 53 102 53 6 0 109 -56 227 -125 119 -69 218 -125 221 -125 3 0 5
114 5 254 0 223 2 255 16 267 9 8 107 66 216 130 110 63 201 119 202 124 0 5
-85 59 -190 120 -104 60 -202 118 -217 128 l-27 17 0 255 c0 140 -3 255 -6
255 -4 0 -104 -56 -224 -125 -119 -69 -219 -125 -222 -125 -4 0 -104 56 -223
125 -119 69 -218 125 -221 125 -2 0 -4 -110 -4 -244 0 -134 -3 -251 -6 -260
-3 -8 -102 -71 -220 -138 -117 -68 -212 -127 -211 -133 2 -5 79 -54 172 -107
93 -54 190 -111 217 -127 l48 -30 0 -107 0 -107 -142 -246 c-77 -135 -148
-254 -156 -263 -14 -16 -40 -18 -283 -18 l-269 0 -5 23 c-3 12 -4 259 -3 549
l3 528 523 523 522 522 -105 105 -105 105 -409 -409 c-239 -239 -413 -406
-420 -402 -8 5 -11 122 -11 394 l0 386 527 528 527 528 -99 100 c-55 55 -104
100 -110 100 -5 0 -191 -181 -411 -401 -291 -291 -406 -400 -418 -396 -14 6
-16 44 -16 342 0 290 2 336 15 341 9 4 71 -26 147 -69 72 -42 135 -74 140 -71
4 3 8 119 8 258 l0 252 205 119 c113 65 213 124 222 130 13 10 -21 33 -206
139 l-221 128 0 253 c0 140 -3 256 -8 259 -4 2 -104 -52 -222 -120 -118 -68
-219 -124 -225 -124 -7 0 -246 135 -406 229 -20 11 -39 18 -42 14z m1125
-5220 c27 -30 662 -1137 662 -1153 0 -16 -635 -1123 -662 -1152 -14 -17 -59
-18 -677 -18 -618 0 -663 1 -677 18 -27 30 -662 1136 -662 1152 0 16 635 1122
662 1153 14 16 59 17 677 17 618 0 663 -1 677 -17z"/>
<path d="M5137 7433 c-13 -21 -153 -262 -311 -535 l-287 -498 302 -522 c166
-288 306 -529 312 -536 7 -9 140 -12 626 -10 l616 3 308 533 308 532 -287 498
c-158 273 -298 514 -311 535 l-23 37 -615 0 -615 0 -23 -37z m1077 -340 c49
-76 396 -682 396 -692 0 -11 -393 -695 -412 -718 -8 -10 -105 -13 -423 -13
-318 0 -415 3 -423 13 -19 23 -412 707 -412 718 0 10 347 616 396 692 l24 37
415 0 415 0 24 -37z"/>
<path d="M5390 6848 c0 -192 -2 -216 -17 -230 -10 -8 -96 -59 -190 -113 -95
-54 -173 -101 -173 -104 0 -3 78 -51 173 -105 94 -55 180 -106 190 -114 15
-14 17 -38 17 -230 0 -196 1 -214 17 -208 9 4 94 51 189 106 95 55 176 100
179 100 3 0 84 -45 179 -100 95 -55 180 -102 189 -106 16 -6 17 12 17 208 0
192 2 216 18 230 9 8 95 59 189 114 95 54 173 101 173 104 0 3 -78 50 -172
105 -95 54 -181 105 -190 113 -16 14 -18 38 -18 230 0 200 -1 214 -17 208 -10
-4 -95 -52 -190 -107 -95 -54 -175 -99 -178 -99 -3 0 -83 45 -178 99 -95 55
-180 103 -189 107 -17 6 -18 -8 -18 -208z"/>
</g>
</svg>
