<?xml version="1.0" standalone="no"?>
<!DOCTYPE svg PUBLIC "-//W3C//DTD SVG 20010904//EN"
 "http://www.w3.org/TR/2001/REC-SVG-20010904/DTD/svg10.dtd">
<svg version="1.0" xmlns="http://www.w3.org/2000/svg"
 width="1155.000000pt" height="1280.000000pt" viewBox="0 0 1155.000000 1280.000000"
 preserveAspectRatio="xMidYMid meet">
<metadata>
Created by potrace 1.15, written by Peter Selinger 2001-2017
</metadata>
<g transform="translate(0.000000,1280.000000) scale(0.100000,-0.100000)"
fill="#b50303" stroke="none">
<path d="M5320 12535 l0 -263 -222 -128 c-123 -70 -227 -130 -231 -134 -5 -4
87 -63 205 -130 117 -68 221 -130 231 -138 15 -14 17 -40 17 -273 l0 -258 146
84 c80 47 148 85 150 85 2 0 4 -163 4 -362 l0 -363 -430 430 -430 430 -112
-113 -113 -112 543 -543 542 -542 0 -395 0 -395 -430 430 -430 430 -112 -113
-113 -113 543 -540 542 -540 0 -525 0 -524 -272 2 -272 3 -148 255 -148 255 3
109 2 108 215 125 c118 68 221 128 228 132 9 5 -67 54 -217 140 l-231 133 -2
263 -3 264 -225 -130 c-184 -107 -228 -129 -245 -121 -11 5 -114 64 -229 131
-115 66 -210 121 -212 121 -2 0 -5 -120 -6 -266 l-3 -266 -220 -128 c-121 -70
-220 -130 -220 -134 0 -4 99 -64 220 -134 l220 -127 5 -267 5 -267 224 129
c123 72 228 130 233 130 4 0 48 -23 97 -51 l89 -50 146 -253 c80 -139 146
-259 146 -267 -1 -21 -254 -454 -266 -454 -6 0 -218 119 -471 265 l-461 265
-37 135 c-20 74 -106 396 -191 715 -86 319 -157 582 -159 584 -2 2 -71 -15
-152 -36 -129 -35 -148 -43 -145 -59 2 -10 68 -261 148 -557 79 -296 144 -542
144 -547 0 -6 -662 370 -679 386 -5 4 5 -31 -216 794 -92 344 -170 629 -174
633 -7 7 -278 -60 -293 -73 -5 -3 59 -257 142 -565 82 -307 149 -560 147 -561
-1 -1 -136 75 -299 170 -249 143 -295 173 -281 183 8 7 73 45 144 85 71 40
129 76 129 80 0 3 -101 64 -225 135 l-224 128 -1 264 c0 238 -2 263 -16 257
-9 -4 -110 -60 -225 -126 -114 -66 -213 -120 -220 -120 -6 0 -109 56 -229 125
-119 69 -220 125 -223 125 -4 0 -8 -118 -9 -262 l-3 -263 -220 -127 c-121 -70
-221 -131 -222 -135 -2 -4 98 -66 222 -137 l225 -128 2 -264 3 -264 228 131
227 131 226 -131 c124 -72 228 -131 230 -131 2 0 4 77 4 170 0 94 2 170 4 170
3 0 143 -80 312 -177 242 -140 303 -179 288 -185 -11 -4 -270 -75 -578 -158
-307 -82 -561 -151 -563 -154 -6 -6 67 -278 78 -290 5 -5 82 11 186 39 220 59
279 75 838 224 l449 120 246 -141 c443 -255 436 -250 414 -260 -10 -5 -270
-75 -577 -157 -308 -83 -561 -151 -563 -153 -4 -4 73 -288 81 -296 4 -4 620
158 1291 339 l181 50 454 -262 c250 -144 455 -263 457 -264 2 -2 -57 -107
-130 -234 l-133 -231 -301 0 -302 0 -91 52 -91 52 0 264 c0 227 -2 263 -15
259 -7 -3 -111 -62 -230 -131 l-216 -125 -224 129 c-123 72 -226 130 -229 130
-3 0 -6 -118 -6 -262 l0 -263 -225 -129 c-124 -71 -225 -132 -225 -135 0 -4
101 -65 225 -136 l225 -130 0 -262 c0 -145 2 -263 5 -263 3 0 106 58 229 130
l225 130 225 -130 c123 -72 227 -130 230 -130 3 0 6 118 6 263 l0 263 91 52
91 52 302 0 301 0 133 -231 c74 -127 132 -232 130 -233 -2 -1 -212 -123 -468
-271 l-465 -268 -115 30 c-63 17 -387 103 -719 192 -332 89 -604 161 -606 159
-4 -6 -75 -283 -75 -293 0 -5 252 -77 560 -159 308 -83 557 -153 553 -157 -10
-10 -607 -356 -648 -376 -28 -13 -46 -10 -315 62 -962 258 -1143 306 -1146
303 -4 -4 -71 -255 -76 -282 -2 -16 8 -22 62 -36 264 -70 1056 -283 1058 -285
3 -2 -587 -345 -594 -345 -2 0 -4 77 -4 170 0 94 -2 170 -4 170 -2 0 -106 -59
-230 -130 l-226 -131 -222 128 c-122 70 -226 130 -230 131 -4 2 -8 -115 -8
-260 l0 -264 -225 -130 c-124 -71 -225 -132 -225 -135 0 -4 101 -65 225 -135
l224 -129 1 -264 c0 -226 2 -262 15 -258 7 3 111 62 229 130 l215 125 216
-125 c119 -68 223 -127 231 -130 12 -4 14 33 14 258 l0 264 225 129 c124 71
225 131 225 135 0 3 -66 44 -146 90 -100 57 -142 86 -133 92 8 4 147 84 309
178 162 93 296 168 298 166 3 -3 -128 -502 -266 -1013 -22 -78 -36 -144 -33
-146 11 -7 271 -76 286 -76 8 0 18 16 24 38 103 393 384 1429 389 1433 10 9
671 389 676 389 3 0 -4 -30 -14 -67 -55 -198 -290 -1082 -290 -1090 0 -6 66
-28 148 -50 129 -35 148 -38 154 -24 4 9 93 338 198 731 122 456 197 721 208
731 9 9 214 129 456 268 359 207 441 250 451 239 21 -22 255 -434 255 -448 0
-7 -65 -126 -145 -264 l-145 -252 -89 -52 c-49 -29 -93 -52 -98 -52 -5 0 -110
58 -233 129 l-225 130 -5 -267 -5 -266 -220 -127 c-121 -70 -219 -131 -217
-135 1 -5 100 -66 220 -135 l217 -126 5 -266 5 -267 225 130 c124 71 228 130
232 130 4 0 107 -58 230 -129 l223 -129 3 263 2 263 230 133 c147 85 226 136
218 141 -7 4 -110 63 -228 131 l-215 125 -2 108 -3 109 148 255 148 255 272 3
272 2 0 -537 0 -538 -527 -527 -528 -528 113 -112 112 -113 415 415 415 415 0
-395 0 -395 -527 -527 -528 -528 113 -112 112 -113 415 415 415 415 0 -348 c0
-191 -2 -347 -4 -347 -2 0 -68 38 -147 84 l-144 83 -3 -257 c-2 -230 -4 -259
-20 -272 -9 -8 -109 -68 -222 -132 -113 -65 -208 -121 -213 -125 -4 -4 96 -67
223 -140 l230 -133 0 -263 0 -263 198 115 c108 64 211 122 229 131 l32 15 198
-113 c109 -62 210 -122 226 -132 15 -11 27 -16 27 -11 0 4 0 123 0 264 l-1
257 231 133 c126 73 227 136 223 140 -5 4 -100 60 -213 125 -113 64 -213 124
-222 132 -16 13 -18 42 -20 272 l-3 257 -144 -83 c-79 -46 -145 -84 -147 -84
-2 0 -4 163 -4 362 l0 363 430 -430 430 -430 112 113 113 112 -543 543 -542
542 0 395 0 395 430 -430 430 -430 112 113 113 112 -543 543 -542 542 0 523 0
522 272 -2 272 -3 148 -255 148 -255 -3 -109 -2 -108 -215 -125 c-118 -68
-221 -127 -228 -131 -8 -5 71 -56 218 -141 l230 -133 2 -263 3 -263 223 129
c123 71 226 129 230 129 4 0 108 -59 232 -130 l225 -130 5 267 5 266 218 126
c119 69 217 131 217 136 0 6 -98 66 -217 136 l-218 125 -5 266 -5 267 -225
-130 c-123 -71 -228 -129 -233 -129 -5 0 -49 23 -98 52 l-89 52 -145 252 c-80
138 -145 257 -145 264 0 14 234 426 255 448 10 11 84 -28 406 -214 217 -125
426 -246 466 -268 l71 -41 37 -135 c20 -74 106 -396 191 -715 86 -319 158
-582 160 -584 4 -4 273 68 290 78 8 4 -36 181 -137 556 -81 303 -148 555 -149
562 0 8 659 -363 679 -383 5 -4 -5 31 216 -794 92 -344 170 -628 174 -632 7
-8 279 59 293 71 5 4 -59 258 -142 566 -82 307 -149 560 -147 561 1 1 130 -72
287 -163 157 -90 291 -168 299 -172 9 -6 -33 -35 -133 -92 -80 -46 -146 -87
-146 -90 0 -4 101 -64 225 -135 l225 -129 0 -264 c0 -225 2 -262 14 -258 8 3
112 62 231 130 l216 125 214 -124 c118 -68 221 -127 230 -130 13 -5 15 24 15
257 l1 264 224 129 c124 70 225 131 225 135 0 3 -101 64 -225 135 l-225 130 0
264 c0 145 -4 262 -8 260 -4 -1 -108 -61 -230 -131 l-222 -128 -226 131 c-124
71 -228 130 -230 130 -2 0 -4 -77 -4 -171 0 -94 -4 -169 -9 -167 -4 2 -144 81
-310 177 -187 108 -297 177 -289 182 7 4 99 30 203 58 675 180 938 251 942
255 8 8 -72 288 -83 293 -9 3 -530 -133 -1263 -331 l-205 -56 -305 177 c-402
231 -376 215 -360 224 8 4 91 27 184 52 500 134 959 257 961 260 4 4 -73 287
-80 295 -5 4 -675 -171 -1292 -339 l-181 -49 -454 262 c-250 144 -455 262
-457 264 -2 1 56 106 130 233 l133 231 301 0 302 0 91 -52 91 -52 0 -263 c0
-145 3 -263 6 -263 3 0 107 58 230 130 l225 130 225 -130 c123 -72 226 -130
229 -130 3 0 5 118 5 263 l0 262 225 129 c124 72 225 133 225 136 0 3 -101 65
-225 136 l-225 129 0 263 c0 144 -3 262 -6 262 -3 0 -106 -58 -229 -130 l-224
-129 -216 125 c-119 69 -223 128 -230 131 -13 4 -15 -32 -15 -259 l0 -264 -91
-52 -91 -52 -302 0 -301 0 -133 231 c-73 127 -132 232 -130 234 18 15 930 535
938 535 11 0 613 -160 1174 -311 142 -39 259 -69 260 -67 5 6 76 283 76 293 0
6 -252 77 -560 160 -428 114 -557 152 -548 160 14 13 613 359 650 376 20 9
124 -16 629 -151 332 -88 653 -175 712 -191 60 -17 110 -29 112 -27 4 4 72
253 77 282 3 22 60 5 -637 191 -220 59 -420 112 -444 119 l-44 13 297 171
c163 95 299 172 302 172 2 0 4 -76 4 -170 0 -93 2 -170 4 -170 2 0 106 59 230
131 l226 131 227 -131 228 -131 3 264 2 264 225 128 c124 71 224 133 222 137
-1 4 -101 65 -222 135 l-220 127 -3 264 c-2 242 -4 262 -19 257 -9 -4 -110
-61 -224 -126 -114 -66 -212 -120 -218 -120 -7 0 -106 54 -220 120 -115 66
-216 122 -225 126 -14 6 -16 -19 -16 -257 l-1 -264 -224 -128 c-124 -71 -225
-132 -225 -135 0 -4 58 -40 129 -80 71 -40 136 -78 145 -85 13 -10 -34 -40
-292 -189 -169 -97 -308 -174 -310 -169 -2 6 277 1061 298 1123 7 22 5 30 -8
36 -29 15 -281 77 -287 71 -4 -5 -88 -315 -376 -1390 l-21 -77 -340 -196
c-187 -108 -342 -195 -343 -194 -1 2 67 260 151 573 84 314 154 575 154 581 0
9 -289 95 -298 89 -3 -3 -75 -271 -293 -1085 -55 -206 -106 -380 -112 -387 -7
-7 -212 -127 -456 -268 -358 -206 -447 -253 -456 -243 -21 22 -255 435 -255
448 0 8 66 127 146 266 l146 253 89 50 c49 28 93 51 98 51 5 0 110 -58 233
-130 l223 -129 5 267 5 267 220 127 c121 70 219 130 219 135 -1 4 -100 64
-220 134 l-219 127 -3 266 c-1 146 -4 266 -6 266 -2 0 -97 -55 -212 -121 -115
-67 -218 -126 -229 -131 -17 -8 -61 14 -245 121 l-225 130 -3 -264 -2 -263
-231 -133 c-150 -86 -226 -135 -217 -140 7 -4 110 -64 228 -132 l215 -125 2
-108 3 -109 -148 -255 -148 -255 -272 -3 -272 -2 0 537 0 538 527 527 528 528
-113 112 -112 113 -415 -415 -415 -415 0 395 0 395 527 527 528 528 -113 112
-112 113 -415 -415 -415 -415 0 348 c0 191 2 347 4 347 2 0 70 -38 150 -85
l146 -84 0 258 c0 233 2 259 18 273 9 8 113 70 230 138 118 67 210 126 205
130 -4 4 -108 64 -230 134 l-223 128 0 263 0 263 -222 -129 c-123 -71 -227
-129 -233 -129 -5 0 -110 58 -232 129 l-223 129 0 -263z m1127 -4987 c10 -12
623 -1072 652 -1126 11 -21 -13 -67 -300 -565 -172 -298 -323 -559 -336 -579
l-23 -38 -665 0 -665 0 -23 38 c-83 133 -641 1110 -641 1122 0 12 560 994 641
1123 l23 37 664 0 c519 0 666 -3 673 -12z"/>
<path d="M4841 6940 l-312 -539 312 -541 312 -540 622 0 622 0 312 540 312
540 -312 540 -311 540 -623 0 -623 0 -311 -540z m1551 -170 c110 -190 202
-352 205 -361 2 -8 -88 -175 -200 -370 l-205 -354 -417 0 -417 0 -204 353
c-112 194 -204 357 -204 363 0 7 322 571 392 687 l20 32 415 -2 415 -3 200
-345z"/>
<path d="M5378 6854 l-3 -227 -192 -111 c-106 -61 -193 -113 -193 -116 0 -3
87 -55 193 -115 l192 -111 3 -227 c1 -125 4 -227 6 -227 3 0 90 50 195 110
104 61 193 110 196 110 3 0 92 -49 196 -110 105 -60 192 -110 195 -110 2 0 5
102 6 227 l3 227 192 111 c106 60 193 112 193 115 0 3 -87 55 -193 116 l-192
111 -3 227 c-1 124 -5 226 -7 226 -3 0 -91 -49 -195 -110 -104 -60 -192 -110
-195 -110 -3 0 -91 50 -195 110 -104 61 -192 110 -195 110 -2 0 -6 -102 -7
-226z"/>
</g>
</svg>
